<mxfile host="app.diagrams.net" agent="Mozilla/5.0 (Windows NT 10.0; Win64; x64) AppleWebKit/537.36 (KHTML, like Gecko) Chrome/129.0.0.0 Safari/537.36" version="24.7.17">
  <diagram name="Page-1" id="kU0qX18dn92hURGCrKew">
    <mxGraphModel dx="1450" dy="522" grid="0" gridSize="10" guides="1" tooltips="1" connect="1" arrows="1" fold="1" page="0" pageScale="1" pageWidth="850" pageHeight="1100" math="0" shadow="0">
      <root>
        <mxCell id="0" />
        <mxCell id="1" parent="0" />
        <mxCell id="IfXkzuOIDa3g0UD_Jckb-5" style="edgeStyle=orthogonalEdgeStyle;rounded=0;orthogonalLoop=1;jettySize=auto;html=1;endArrow=none;endFill=0;" parent="1" source="IfXkzuOIDa3g0UD_Jckb-1" target="IfXkzuOIDa3g0UD_Jckb-4" edge="1">
          <mxGeometry relative="1" as="geometry" />
        </mxCell>
        <mxCell id="IfXkzuOIDa3g0UD_Jckb-1" value="User" style="shape=umlActor;verticalLabelPosition=bottom;verticalAlign=top;html=1;outlineConnect=0;" parent="1" vertex="1">
          <mxGeometry x="162" y="326" width="30" height="60" as="geometry" />
        </mxCell>
        <mxCell id="IfXkzuOIDa3g0UD_Jckb-9" style="edgeStyle=orthogonalEdgeStyle;rounded=0;orthogonalLoop=1;jettySize=auto;html=1;endArrow=open;endFill=0;endSize=10;dashed=1;dashPattern=8 8;" parent="1" source="IfXkzuOIDa3g0UD_Jckb-4" target="IfXkzuOIDa3g0UD_Jckb-6" edge="1">
          <mxGeometry relative="1" as="geometry">
            <Array as="points">
              <mxPoint x="432" y="403" />
              <mxPoint x="572" y="403" />
              <mxPoint x="572" y="469" />
            </Array>
          </mxGeometry>
        </mxCell>
        <mxCell id="IfXkzuOIDa3g0UD_Jckb-4" value="Select executable" style="ellipse;whiteSpace=wrap;html=1;fillColor=#e1d5e7;strokeColor=#9673a6;" parent="1" vertex="1">
          <mxGeometry x="372" y="316" width="120" height="80" as="geometry" />
        </mxCell>
        <mxCell id="IfXkzuOIDa3g0UD_Jckb-6" value="Add value to argument" style="ellipse;whiteSpace=wrap;html=1;fillColor=#f8cecc;strokeColor=#b85450;" parent="1" vertex="1">
          <mxGeometry x="372" y="425" width="120" height="80" as="geometry" />
        </mxCell>
        <mxCell id="IfXkzuOIDa3g0UD_Jckb-7" value="Toggle flag" style="ellipse;whiteSpace=wrap;html=1;fillColor=#f8cecc;strokeColor=#b85450;" parent="1" vertex="1">
          <mxGeometry x="372" y="534" width="120" height="80" as="geometry" />
        </mxCell>
        <mxCell id="IfXkzuOIDa3g0UD_Jckb-8" value="Select choice" style="ellipse;whiteSpace=wrap;html=1;fillColor=#f8cecc;strokeColor=#b85450;" parent="1" vertex="1">
          <mxGeometry x="372" y="643" width="120" height="80" as="geometry" />
        </mxCell>
        <mxCell id="IfXkzuOIDa3g0UD_Jckb-10" value="&amp;lt;&amp;lt;precede&amp;gt;&amp;gt;" style="text;html=1;align=center;verticalAlign=middle;resizable=0;points=[];autosize=1;strokeColor=none;fillColor=none;" parent="1" vertex="1">
          <mxGeometry x="482" y="443" width="89" height="26" as="geometry" />
        </mxCell>
        <mxCell id="IfXkzuOIDa3g0UD_Jckb-11" style="edgeStyle=orthogonalEdgeStyle;rounded=0;orthogonalLoop=1;jettySize=auto;html=1;endArrow=open;endFill=0;endSize=10;dashed=1;dashPattern=8 8;" parent="1" source="IfXkzuOIDa3g0UD_Jckb-4" target="IfXkzuOIDa3g0UD_Jckb-7" edge="1">
          <mxGeometry relative="1" as="geometry">
            <mxPoint x="502" y="366" as="sourcePoint" />
            <mxPoint x="502" y="479" as="targetPoint" />
            <Array as="points">
              <mxPoint x="432" y="403" />
              <mxPoint x="572" y="403" />
              <mxPoint x="572" y="572" />
            </Array>
          </mxGeometry>
        </mxCell>
        <mxCell id="IfXkzuOIDa3g0UD_Jckb-12" style="edgeStyle=orthogonalEdgeStyle;rounded=0;orthogonalLoop=1;jettySize=auto;html=1;endArrow=open;endFill=0;endSize=10;dashed=1;dashPattern=8 8;" parent="1" source="IfXkzuOIDa3g0UD_Jckb-4" target="IfXkzuOIDa3g0UD_Jckb-8" edge="1">
          <mxGeometry relative="1" as="geometry">
            <mxPoint x="718" y="379" as="sourcePoint" />
            <mxPoint x="718" y="492" as="targetPoint" />
            <Array as="points">
              <mxPoint x="432" y="403" />
              <mxPoint x="572" y="403" />
              <mxPoint x="572" y="684" />
            </Array>
          </mxGeometry>
        </mxCell>
        <mxCell id="IfXkzuOIDa3g0UD_Jckb-13" value="&amp;lt;&amp;lt;precede&amp;gt;&amp;gt;" style="text;html=1;align=center;verticalAlign=middle;resizable=0;points=[];autosize=1;strokeColor=none;fillColor=none;" parent="1" vertex="1">
          <mxGeometry x="479" y="658" width="89" height="26" as="geometry" />
        </mxCell>
        <mxCell id="IfXkzuOIDa3g0UD_Jckb-14" value="&amp;lt;&amp;lt;precede&amp;gt;&amp;gt;" style="text;html=1;align=center;verticalAlign=middle;resizable=0;points=[];autosize=1;strokeColor=none;fillColor=none;" parent="1" vertex="1">
          <mxGeometry x="482" y="545" width="89" height="26" as="geometry" />
        </mxCell>
        <mxCell id="IfXkzuOIDa3g0UD_Jckb-16" style="edgeStyle=orthogonalEdgeStyle;rounded=0;orthogonalLoop=1;jettySize=auto;html=1;endArrow=none;endFill=0;" parent="1" source="IfXkzuOIDa3g0UD_Jckb-1" target="IfXkzuOIDa3g0UD_Jckb-6" edge="1">
          <mxGeometry relative="1" as="geometry">
            <mxPoint x="202" y="366" as="sourcePoint" />
            <mxPoint x="382" y="366" as="targetPoint" />
            <Array as="points">
              <mxPoint x="312" y="356" />
              <mxPoint x="312" y="465" />
            </Array>
          </mxGeometry>
        </mxCell>
        <mxCell id="IfXkzuOIDa3g0UD_Jckb-17" style="edgeStyle=orthogonalEdgeStyle;rounded=0;orthogonalLoop=1;jettySize=auto;html=1;endArrow=none;endFill=0;" parent="1" source="IfXkzuOIDa3g0UD_Jckb-1" target="IfXkzuOIDa3g0UD_Jckb-7" edge="1">
          <mxGeometry relative="1" as="geometry">
            <mxPoint x="212" y="376" as="sourcePoint" />
            <mxPoint x="392" y="376" as="targetPoint" />
            <Array as="points">
              <mxPoint x="312" y="356" />
              <mxPoint x="312" y="574" />
            </Array>
          </mxGeometry>
        </mxCell>
        <mxCell id="IfXkzuOIDa3g0UD_Jckb-18" style="edgeStyle=orthogonalEdgeStyle;rounded=0;orthogonalLoop=1;jettySize=auto;html=1;endArrow=none;endFill=0;" parent="1" source="IfXkzuOIDa3g0UD_Jckb-1" target="IfXkzuOIDa3g0UD_Jckb-8" edge="1">
          <mxGeometry relative="1" as="geometry">
            <mxPoint x="222" y="386" as="sourcePoint" />
            <mxPoint x="402" y="386" as="targetPoint" />
            <Array as="points">
              <mxPoint x="312" y="356" />
              <mxPoint x="312" y="683" />
            </Array>
          </mxGeometry>
        </mxCell>
        <mxCell id="IfXkzuOIDa3g0UD_Jckb-19" value="Execute runnable" style="ellipse;whiteSpace=wrap;html=1;fillColor=#d5e8d4;strokeColor=#82b366;" parent="1" vertex="1">
          <mxGeometry x="372" y="207" width="120" height="80" as="geometry" />
        </mxCell>
        <mxCell id="IfXkzuOIDa3g0UD_Jckb-20" style="edgeStyle=orthogonalEdgeStyle;rounded=0;orthogonalLoop=1;jettySize=auto;html=1;endArrow=open;endFill=0;endSize=10;dashed=1;dashPattern=8 8;" parent="1" source="IfXkzuOIDa3g0UD_Jckb-4" target="IfXkzuOIDa3g0UD_Jckb-19" edge="1">
          <mxGeometry relative="1" as="geometry">
            <mxPoint x="502" y="366" as="sourcePoint" />
            <mxPoint x="502" y="479" as="targetPoint" />
            <Array as="points">
              <mxPoint x="452" y="298" />
              <mxPoint x="452" y="298" />
            </Array>
          </mxGeometry>
        </mxCell>
        <mxCell id="IfXkzuOIDa3g0UD_Jckb-21" style="edgeStyle=orthogonalEdgeStyle;rounded=0;orthogonalLoop=1;jettySize=auto;html=1;endArrow=none;endFill=0;" parent="1" source="IfXkzuOIDa3g0UD_Jckb-1" target="IfXkzuOIDa3g0UD_Jckb-19" edge="1">
          <mxGeometry relative="1" as="geometry">
            <mxPoint x="202" y="366" as="sourcePoint" />
            <mxPoint x="382" y="366" as="targetPoint" />
            <Array as="points">
              <mxPoint x="312" y="356" />
              <mxPoint x="312" y="247" />
            </Array>
          </mxGeometry>
        </mxCell>
        <mxCell id="IfXkzuOIDa3g0UD_Jckb-22" value="Save config" style="ellipse;whiteSpace=wrap;html=1;fillColor=#fff2cc;strokeColor=#d6b656;" parent="1" vertex="1">
          <mxGeometry x="706" y="207" width="120" height="80" as="geometry" />
        </mxCell>
        <mxCell id="IfXkzuOIDa3g0UD_Jckb-23" value="Load config" style="ellipse;whiteSpace=wrap;html=1;fillColor=#fff2cc;strokeColor=#d6b656;" parent="1" vertex="1">
          <mxGeometry x="706" y="316" width="120" height="80" as="geometry" />
        </mxCell>
        <mxCell id="IfXkzuOIDa3g0UD_Jckb-24" value="&amp;lt;&amp;lt;precede&amp;gt;&amp;gt;" style="text;html=1;align=center;verticalAlign=middle;resizable=0;points=[];autosize=1;strokeColor=none;fillColor=none;" parent="1" vertex="1">
          <mxGeometry x="455" y="294" width="89" height="26" as="geometry" />
        </mxCell>
        <mxCell id="IfXkzuOIDa3g0UD_Jckb-26" style="edgeStyle=orthogonalEdgeStyle;rounded=0;orthogonalLoop=1;jettySize=auto;html=1;endArrow=open;endFill=0;endSize=10;dashed=1;dashPattern=8 8;" parent="1" source="IfXkzuOIDa3g0UD_Jckb-4" target="IfXkzuOIDa3g0UD_Jckb-22" edge="1">
          <mxGeometry relative="1" as="geometry">
            <mxPoint x="502" y="366" as="sourcePoint" />
            <mxPoint x="502" y="261" as="targetPoint" />
            <Array as="points">
              <mxPoint x="596" y="334" />
              <mxPoint x="596" y="261" />
            </Array>
          </mxGeometry>
        </mxCell>
        <mxCell id="IfXkzuOIDa3g0UD_Jckb-27" value="&amp;lt;&amp;lt;invoke&amp;gt;&amp;gt;" style="text;html=1;align=center;verticalAlign=middle;resizable=0;points=[];autosize=1;strokeColor=none;fillColor=none;" parent="1" vertex="1">
          <mxGeometry x="615" y="234" width="81" height="26" as="geometry" />
        </mxCell>
        <mxCell id="IfXkzuOIDa3g0UD_Jckb-28" style="edgeStyle=orthogonalEdgeStyle;rounded=0;orthogonalLoop=1;jettySize=auto;html=1;endArrow=open;endFill=0;endSize=10;dashed=1;dashPattern=8 8;" parent="1" source="IfXkzuOIDa3g0UD_Jckb-4" target="IfXkzuOIDa3g0UD_Jckb-23" edge="1">
          <mxGeometry relative="1" as="geometry">
            <mxPoint x="492" y="344" as="sourcePoint" />
            <mxPoint x="720" y="271" as="targetPoint" />
            <Array as="points">
              <mxPoint x="606" y="376" />
              <mxPoint x="606" y="358" />
            </Array>
          </mxGeometry>
        </mxCell>
        <mxCell id="IfXkzuOIDa3g0UD_Jckb-29" value="&amp;lt;&amp;lt;invoke&amp;gt;&amp;gt;" style="text;html=1;align=center;verticalAlign=middle;resizable=0;points=[];autosize=1;strokeColor=none;fillColor=none;" parent="1" vertex="1">
          <mxGeometry x="609" y="331" width="81" height="26" as="geometry" />
        </mxCell>
        <mxCell id="IfXkzuOIDa3g0UD_Jckb-30" value="Clear history" style="ellipse;whiteSpace=wrap;html=1;fillColor=#ffe6cc;strokeColor=#d79b00;" parent="1" vertex="1">
          <mxGeometry x="147" y="534" width="120" height="80" as="geometry" />
        </mxCell>
        <mxCell id="IfXkzuOIDa3g0UD_Jckb-32" style="edgeStyle=orthogonalEdgeStyle;rounded=0;orthogonalLoop=1;jettySize=auto;html=1;endArrow=none;endFill=0;" parent="1" source="IfXkzuOIDa3g0UD_Jckb-1" target="IfXkzuOIDa3g0UD_Jckb-30" edge="1">
          <mxGeometry relative="1" as="geometry">
            <mxPoint x="202" y="366" as="sourcePoint" />
            <mxPoint x="382" y="257" as="targetPoint" />
            <Array as="points">
              <mxPoint x="210" y="356" />
            </Array>
          </mxGeometry>
        </mxCell>
        <mxCell id="IfXkzuOIDa3g0UD_Jckb-34" value="Pin an executable" style="ellipse;whiteSpace=wrap;html=1;fillColor=#ffff88;strokeColor=#36393d;" parent="1" vertex="1">
          <mxGeometry x="-41" y="187" width="120" height="80" as="geometry" />
        </mxCell>
        <mxCell id="IfXkzuOIDa3g0UD_Jckb-35" value="Unpin an executable" style="ellipse;whiteSpace=wrap;html=1;fillColor=#ffff88;strokeColor=#36393d;" parent="1" vertex="1">
          <mxGeometry x="158" y="187" width="120" height="80" as="geometry" />
        </mxCell>
        <mxCell id="IfXkzuOIDa3g0UD_Jckb-36" style="edgeStyle=orthogonalEdgeStyle;rounded=0;orthogonalLoop=1;jettySize=auto;html=1;endArrow=none;endFill=0;" parent="1" source="IfXkzuOIDa3g0UD_Jckb-1" target="IfXkzuOIDa3g0UD_Jckb-34" edge="1">
          <mxGeometry relative="1" as="geometry">
            <mxPoint x="202" y="366" as="sourcePoint" />
            <mxPoint x="220" y="544" as="targetPoint" />
            <Array as="points">
              <mxPoint x="16" y="366" />
            </Array>
          </mxGeometry>
        </mxCell>
        <mxCell id="IfXkzuOIDa3g0UD_Jckb-37" style="edgeStyle=orthogonalEdgeStyle;rounded=0;orthogonalLoop=1;jettySize=auto;html=1;endArrow=none;endFill=0;" parent="1" source="IfXkzuOIDa3g0UD_Jckb-1" target="IfXkzuOIDa3g0UD_Jckb-35" edge="1">
          <mxGeometry relative="1" as="geometry">
            <mxPoint x="172" y="376" as="sourcePoint" />
            <mxPoint x="26" y="277" as="targetPoint" />
            <Array as="points">
              <mxPoint x="129" y="366" />
              <mxPoint x="129" y="277" />
              <mxPoint x="218" y="277" />
            </Array>
          </mxGeometry>
        </mxCell>
        <mxCell id="IfXkzuOIDa3g0UD_Jckb-38" style="edgeStyle=orthogonalEdgeStyle;rounded=0;orthogonalLoop=1;jettySize=auto;html=1;endArrow=open;endFill=0;endSize=10;dashed=1;dashPattern=8 8;" parent="1" source="IfXkzuOIDa3g0UD_Jckb-34" target="IfXkzuOIDa3g0UD_Jckb-35" edge="1">
          <mxGeometry relative="1" as="geometry">
            <mxPoint x="462" y="328" as="sourcePoint" />
            <mxPoint x="462" y="295" as="targetPoint" />
            <Array as="points" />
          </mxGeometry>
        </mxCell>
        <mxCell id="IfXkzuOIDa3g0UD_Jckb-39" value="&amp;lt;&amp;lt;precede&amp;gt;&amp;gt;" style="text;html=1;align=center;verticalAlign=middle;resizable=0;points=[];autosize=1;strokeColor=none;fillColor=none;" parent="1" vertex="1">
          <mxGeometry x="69" y="201" width="89" height="26" as="geometry" />
        </mxCell>
        <mxCell id="IfXkzuOIDa3g0UD_Jckb-40" value="Search executable" style="ellipse;whiteSpace=wrap;html=1;fillColor=#b1ddf0;strokeColor=#10739e;" parent="1" vertex="1">
          <mxGeometry x="-98" y="411" width="120" height="80" as="geometry" />
        </mxCell>
        <mxCell id="IfXkzuOIDa3g0UD_Jckb-41" value="Clear search" style="ellipse;whiteSpace=wrap;html=1;fillColor=#b1ddf0;strokeColor=#10739e;" parent="1" vertex="1">
          <mxGeometry x="-98" y="523" width="120" height="80" as="geometry" />
        </mxCell>
        <mxCell id="IfXkzuOIDa3g0UD_Jckb-42" style="edgeStyle=orthogonalEdgeStyle;rounded=0;orthogonalLoop=1;jettySize=auto;html=1;endArrow=none;endFill=0;" parent="1" source="IfXkzuOIDa3g0UD_Jckb-1" target="IfXkzuOIDa3g0UD_Jckb-40" edge="1">
          <mxGeometry relative="1" as="geometry">
            <mxPoint x="172" y="376" as="sourcePoint" />
            <mxPoint x="26" y="277" as="targetPoint" />
            <Array as="points">
              <mxPoint x="56" y="366" />
              <mxPoint x="56" y="451" />
            </Array>
          </mxGeometry>
        </mxCell>
        <mxCell id="IfXkzuOIDa3g0UD_Jckb-43" style="edgeStyle=orthogonalEdgeStyle;rounded=0;orthogonalLoop=1;jettySize=auto;html=1;endArrow=none;endFill=0;" parent="1" source="IfXkzuOIDa3g0UD_Jckb-1" target="IfXkzuOIDa3g0UD_Jckb-41" edge="1">
          <mxGeometry relative="1" as="geometry">
            <mxPoint x="172" y="376" as="sourcePoint" />
            <mxPoint x="32" y="461" as="targetPoint" />
            <Array as="points">
              <mxPoint x="56" y="366" />
              <mxPoint x="56" y="563" />
            </Array>
          </mxGeometry>
        </mxCell>
        <mxCell id="IfXkzuOIDa3g0UD_Jckb-44" style="edgeStyle=orthogonalEdgeStyle;rounded=0;orthogonalLoop=1;jettySize=auto;html=1;endArrow=open;endFill=0;endSize=10;dashed=1;dashPattern=8 8;" parent="1" source="IfXkzuOIDa3g0UD_Jckb-40" target="IfXkzuOIDa3g0UD_Jckb-41" edge="1">
          <mxGeometry relative="1" as="geometry">
            <mxPoint x="89" y="237" as="sourcePoint" />
            <mxPoint x="168" y="237" as="targetPoint" />
            <Array as="points" />
          </mxGeometry>
        </mxCell>
        <mxCell id="IfXkzuOIDa3g0UD_Jckb-45" value="&amp;lt;&amp;lt;precede&amp;gt;&amp;gt;" style="text;html=1;align=center;verticalAlign=middle;resizable=0;points=[];autosize=1;strokeColor=none;fillColor=none;" parent="1" vertex="1">
          <mxGeometry x="-130" y="491" width="89" height="26" as="geometry" />
        </mxCell>
      </root>
    </mxGraphModel>
  </diagram>
</mxfile>
